<svg xmlns="http://www.w3.org/2000/svg" width="256" height="256"><path fill-opacity=".016" d="M0 128.004v128.004l128.25-.254 128.25-.254.254-127.75L257.008 0H0v128.004m.485.496c0 70.4.119 99.053.265 63.672.146-35.38.146-92.98 0-128C.604 29.153.485 58.1.485 128.5" fill="#1976D2" fill-rule="evenodd"/><path fill-opacity=".255" d="M104.555 5.556c-24.465 4.595-47.711 16.34-65.54 33.112C8.837 67.057-5.022 107.485 1.544 147.973 9.917 199.599 52.308 241.235 106 250.565c14.41 2.505 40.043 1.573 53.5-1.944 23.951-6.259 41.998-16.277 59.069-32.792 18.861-18.245 30.964-40.483 36.102-66.329 1.911-9.618 2.898-32.96 1.517-35.911-.537-1.149-1.476-5.073-2.085-8.721-2.521-15.074-10.743-34.037-20.878-48.146-3.073-4.278-9.668-11.726-14.656-16.551-17.063-16.506-35.075-26.508-59.069-32.802-8.683-2.277-12.437-2.668-28.5-2.964-13.444-.249-20.671.066-26.445 1.151M54.25 50.706l-2.25.433V113h13V88h4.277c5.919 0 8.409 2.079 10.228 8.541l3.086 10.953L84.142 113h6.929c3.811 0 6.929-.249 6.929-.554 0-1.07-5.084-18.976-6.166-21.716-.601-1.524-2.374-3.848-3.94-5.166l-2.846-2.395 3.402-2.007c4.457-2.63 6.684-6.175 7.298-11.617.669-5.939-.19-8.84-3.857-13.016-4.335-4.938-10.517-6.563-24.323-6.393-6.087.075-12.081.331-13.318.57M107 81.5V113h40v-11h-26V86h23V75h-23V61h24V50h-38v31.5m68.268-29.545c-8.951 3.222-14.737 8.415-18.435 16.545-1.826 4.016-2.273 6.771-2.273 14 0 9.889 1.702 15.135 6.912 21.299 6.394 7.566 20.515 11.31 34.782 9.224 13.863-2.027 12.746-.318 12.746-19.498V77h-23v11h10V101.909l-3.5.657c-7.316 1.372-16.296-2.124-20.214-7.869-2.797-4.101-4.524-11.875-3.677-16.547 1.494-8.243 6.054-13.894 13.085-16.214 3.108-1.026 13.663-.894 20.673.257 1.44.237 2.178-.72 3.234-4.193.753-2.475 1.375-4.784 1.384-5.131.033-1.368-9.322-2.867-17.678-2.833-6.028.025-10.458.63-14.039 1.919M65 69v9h5.05c6.214 0 10.29-1.992 11.867-5.799C84.791 65.262 80.025 60 70.865 60H65v9M.392 128c0 7.425.157 10.463.35 6.75.192-3.713.192-9.787 0-13.5-.193-3.713-.35-.675-.35 6.75m50.844 47.25l.264 31.25 19.75.271 19.75.271V196.06l-12.75-.28-12.75-.28-.292-7.75-.292-7.75H88v-11H65v-14h25v-11H50.972l.264 31.25m46.931-30.448c.183.442 4.077 7.426 8.653 15.52l8.32 14.717-8.698 15.231c-4.784 8.376-8.892 15.568-9.129 15.98-.237.412 3.108.75 7.434.75h7.865l4.694-10.536c2.582-5.795 4.694-10.97 4.694-11.5 0-2.867 2.132.224 7.265 10.536l5.724 11.5h7.506c4.128 0 7.505-.258 7.505-.574 0-.315-4.071-7.592-9.047-16.171l-9.048-15.598 8.548-14.803c4.701-8.141 8.547-15.039 8.547-15.328 0-.289-3.396-.526-7.546-.526h-7.546l-3.967 8.628c-2.182 4.745-4.235 9.695-4.562 11-.328 1.305-.885 2.362-1.237 2.349-.353-.012-2.882-4.962-5.621-11L113.542 144h-7.854c-4.32 0-7.705.361-7.521.802m62.083-.14c-.962.389-1.25 7.624-1.25 31.421V207h14v-23h6.134c7.805 0 12.821-1.514 17.331-5.231 5.064-4.175 6.881-8.207 6.881-15.269 0-9.29-3.909-15.023-12.25-17.966-3.087-1.089-8.009-1.511-16.972-1.455-6.943.043-13.186.306-13.874.583M173 164.124v10.124l5.668-.47c4.8-.398 6.102-.956 8.5-3.64 3.899-4.363 3.865-9.259-.091-13.215-2.532-2.532-3.669-2.923-8.5-2.923H173v10.124" fill="#1976D2" fill-rule="evenodd"/><path fill-opacity=".139" d="M107 5.582C74.569 10.78 44.043 29.191 24.232 55.503 16.963 65.157 7.569 84.449 4.513 96c-7.748 29.281-4.825 58.745 8.482 85.5 9.378 18.855 21.201 33.058 37.59 45.158 28.836 21.289 67.506 29.865 103.167 22.88 42.436-8.311 78.446-37.995 94.065-77.538 4.947-12.524 9.706-38.017 8.867-47.5-2.961-33.473-13.686-58.394-34.881-81.051C209.808 30.625 188.552 17.057 171 11.02c-18.047-6.208-44.938-8.493-64-5.438M61 49.657c-3.025.199-6.513.591-7.75.871l-2.25.51V113h13.938l.281-12.25.281-12.25 4.313.091c6.145.13 7.961 2.436 11.079 14.063l2.64 9.846 7.607.29 7.607.29-3.185-11.29c-3.254-11.53-5.469-16.157-8.244-17.222-1.205-.462-.533-1.506 2.935-4.559 6.586-5.797 8.055-13.962 3.906-21.713-1.485-2.776-5.721-5.732-10.158-7.089-4.217-1.289-15.447-2.046-23-1.55m118.5.662c-12.146 3.116-20.99 10.858-24.006 21.015-1.949 6.561-1.904 17.107.098 22.982 2.177 6.39 9.136 13.866 15.629 16.791 4.669 2.104 6.666 2.367 17.279 2.282 7.438-.059 13.711-.643 16.5-1.536l4.5-1.441V77.5l-11.75-.282-11.75-.281V87.89l4.75.305 4.75.305v13h-7.58c-6.815 0-7.962-.291-11.359-2.884-2.078-1.586-4.62-4.736-5.648-7-2.226-4.901-2.504-14.266-.562-18.914 1.857-4.444 7.767-9.386 12.886-10.774 4.687-1.271 15.547-.649 18.767 1.074 1.709.915 2.155.709 2.94-1.355.509-1.338 1.219-3.999 1.578-5.912.612-3.262.445-3.552-2.685-4.658-5.093-1.801-18.629-2.222-24.337-.758M107 81.5V113h40.1l-.3-5.75-.3-5.75-12.75-.28-12.75-.28V87h23V75h-23V62.062l12.25-.281 12.25-.281.3-5.75.3-5.75H107v31.5M65.422 61.344c-.284.739-.382 4.676-.219 8.75L65.5 77.5l5.693-.023c4.616-.018 6.178-.477 8.25-2.424 2.721-2.555 3.435-7.544 1.578-11.014-1.896-3.542-14.442-5.711-15.599-2.695M.349 128c0 4.675.173 6.588.383 4.25.211-2.338.211-6.163 0-8.5-.21-2.338-.383-.425-.383 4.25m163.401 15.735l-4.75.375V207h14v-21.71l7.04-.59c14.742-1.236 22.608-7.729 23.68-19.547.442-4.875.132-6.827-1.675-10.56-4.726-9.764-15.05-12.691-38.295-10.858M51 175.521v31.52l20.25-.27 20.25-.271v-11l-12.75-.28-12.75-.28V180h23V169.063l-11.619-.281-11.619-.282.001-6.366.002-6.365 12.117.167 12.118.167V144H51v31.521m47-30.839c0 .375 3.6 7.043 8 14.818 4.4 7.775 8 14.731 8 15.459 0 .728-3.825 7.998-8.5 16.155-4.675 8.158-8.5 15.087-8.5 15.399 0 .313 3.638.437 8.085.277l8.085-.29 4.665-10.721c2.566-5.896 4.906-10.733 5.201-10.75.295-.016 2.979 4.921 5.964 10.971l5.427 11h16.657l-2.481-4.25c-1.365-2.338-5.593-9.611-9.395-16.163l-6.914-11.913 6.935-12.087c3.814-6.648 7.834-13.55 8.934-15.337l2-3.25h-16.891l-4.386 10.476c-2.412 5.762-4.611 10.466-4.886 10.452-.275-.014-2.719-4.728-5.431-10.476L113.637 144h-7.818c-4.301 0-7.819.307-7.819.682m75.425 10.652c-.281.733-.379 5.121-.218 9.75l.293 8.416 4.797-.166c2.639-.091 5.921-.902 7.295-1.802 5.536-3.628 5.593-12.229.104-15.576-3.724-2.27-11.487-2.664-12.271-.622" fill="#1976D2" fill-rule="evenodd"/><path fill-opacity=".223" d="M113.609 4.992c-44.077 5.563-81.141 31.005-99.978 68.627C4.653 91.55 1 107.279 1 128c0 20.721 3.653 36.45 12.631 54.381 17.106 34.166 49.327 58.432 88.635 66.754 13.401 2.838 36.057 3.068 49.108.5 26.581-5.23 47.562-15.874 65.825-33.393 25.539-24.499 38.185-53.723 38.185-88.242 0-34.523-12.645-63.743-38.193-88.249-18.222-17.481-39.525-28.323-65.231-33.199-10.335-1.961-29.122-2.725-38.351-1.56M55.25 49.674l-4.25.441v63.973l7.25-.294 7.25-.294.281-12.25.281-12.25h3.387c6.658 0 8.135 1.754 10.952 13 3.088 12.332 2.778 12 11.22 12 4.059 0 7.366-.338 7.35-.75-.016-.412-1.299-5.255-2.851-10.761-3.176-11.269-5.318-15.971-8.054-17.68-1.733-1.082-1.593-1.369 1.921-3.914 7.457-5.403 9.038-17.147 3.235-24.042-4.482-5.328-10.158-7.18-22.722-7.414-6.05-.113-12.913-.007-15.25.235m122.679.693c-13.153 3.547-21.661 12.868-24.032 26.33-2.859 16.229 6.071 31.621 20.836 35.914 6.471 1.881 25.093 1.476 31.517-.685l3.75-1.262V77h-24v12h9v13h-5.843c-12.526 0-19.679-7.469-19.63-20.5.03-8.073 1.74-12.076 6.81-15.943 5.619-4.286 16.886-5.16 26.634-2.066 1.427.453 1.996-.303 2.885-3.835.61-2.419 1.378-5.103 1.709-5.964 1.465-3.819-19.201-6.138-29.636-3.325M106.236 81.75l.264 31.75 20.25.271 20.25.27V101h-26V87.063l11.75-.281 11.75-.282v-12l-11.75-.282-11.75-.281V62h25V50h-40.028l.264 31.75M66 69.5V78l2.75-.006c11.1-.022 17.156-8.179 10.795-14.539C77.53 61.439 76.1 61 71.545 61H66v8.5M51 174.979V207h41v-12H66v-14h23v-13H66v-11.938l12.25-.281 12.25-.281v-12l-19.75-.271-19.75-.271v32.021m46.298-30.645c.281.733 4.154 7.763 8.607 15.621 4.452 7.858 8.095 14.638 8.095 15.066 0 .428-4.034 7.816-8.964 16.417l-8.965 15.639 8.687-.289 8.688-.288 4.527-10.22c2.49-5.621 4.762-10.233 5.049-10.25.287-.016 2.872 4.695 5.744 10.47l5.222 10.5h8.506c4.678 0 8.506-.173 8.506-.385 0-.211-3.852-6.994-8.559-15.072-4.708-8.078-8.792-15.295-9.077-16.037-.285-.743 3.092-7.573 7.504-15.178 4.413-7.605 8.32-14.615 8.684-15.578.597-1.578-.142-1.75-7.508-1.75h-8.171l-4.436 9.366c-2.441 5.151-4.437 9.876-4.437 10.5 0 3.007-1.922.188-6.4-9.388L113.7 143h-8.457c-6.638 0-8.347.287-7.945 1.334m64.202-.512l-3 .697-.264 31.241-.264 31.24H173v-22h5.318c11.224 0 19.822-4.434 23.829-12.289 3.055-5.987 2.347-16.064-1.48-21.081-4.893-6.415-9.354-7.971-23.667-8.256-6.875-.137-13.85.064-15.5.448m13.75 10.887c-2.133.408-2.25.893-2.25 9.361V173h4.55c5.013 0 9.866-2.037 10.829-4.545 1.416-3.69.626-9.102-1.629-11.157-2.345-2.137-7.635-3.328-11.5-2.589" fill="#1976D2" fill-rule="evenodd"/></svg>